<?xml version="1.0" encoding="UTF-8" standalone="no"?>
<!DOCTYPE svg PUBLIC "-//W3C//DTD SVG 1.1//EN"
 "http://www.w3.org/Graphics/SVG/1.1/DTD/svg11.dtd">
<!-- Generated by graphviz version 12.2.1 (20241206.2353)
 -->
<!-- Title: dependency&#45;cruiser output Pages: 1 -->
<svg width="584pt" height="848pt"
 viewBox="0.00 0.00 584.25 847.75" xmlns="http://www.w3.org/2000/svg" xmlns:xlink="http://www.w3.org/1999/xlink">
<g id="graph0" class="graph" transform="scale(1 1) rotate(0) translate(4 843.75)">
<title>dependency&#45;cruiser output</title>
<polygon fill="white" stroke="none" points="-4,4 -4,-843.75 580.25,-843.75 580.25,4 -4,4"/>
<g id="clust1" class="cluster">
<title>cluster_src</title>
<path fill="#ffffff" stroke="black" stroke-width="2" d="M20,-17.75C20,-17.75 556.25,-17.75 556.25,-17.75 562.25,-17.75 568.25,-23.75 568.25,-29.75 568.25,-29.75 568.25,-819.75 568.25,-819.75 568.25,-825.75 562.25,-831.75 556.25,-831.75 556.25,-831.75 20,-831.75 20,-831.75 14,-831.75 8,-825.75 8,-819.75 8,-819.75 8,-29.75 8,-29.75 8,-23.75 14,-17.75 20,-17.75"/>
<text text-anchor="middle" x="288.12" y="-819.2" font-family="Helvetica,sans-Serif" font-weight="bold" font-size="9.00">src</text>
</g>
<g id="clust2" class="cluster">
<title>cluster_src/assets</title>
<path fill="#ffffff" stroke="black" stroke-width="2" d="M110.5,-217.75C110.5,-217.75 156.5,-217.75 156.5,-217.75 162.5,-217.75 168.5,-223.75 168.5,-229.75 168.5,-229.75 168.5,-258.75 168.5,-258.75 168.5,-264.75 162.5,-270.75 156.5,-270.75 156.5,-270.75 110.5,-270.75 110.5,-270.75 104.5,-270.75 98.5,-264.75 98.5,-258.75 98.5,-258.75 98.5,-229.75 98.5,-229.75 98.5,-223.75 104.5,-217.75 110.5,-217.75"/>
<text text-anchor="middle" x="133.5" y="-258.2" font-family="Helvetica,sans-Serif" font-weight="bold" font-size="9.00">assets</text>
</g>
<g id="clust3" class="cluster">
<title>cluster_src/components</title>
<path fill="#ffffff" stroke="black" stroke-width="2" d="M313.25,-147.75C313.25,-147.75 458.75,-147.75 458.75,-147.75 464.75,-147.75 470.75,-153.75 470.75,-159.75 470.75,-159.75 470.75,-684.75 470.75,-684.75 470.75,-690.75 464.75,-696.75 458.75,-696.75 458.75,-696.75 313.25,-696.75 313.25,-696.75 307.25,-696.75 301.25,-690.75 301.25,-684.75 301.25,-684.75 301.25,-159.75 301.25,-159.75 301.25,-153.75 307.25,-147.75 313.25,-147.75"/>
<text text-anchor="middle" x="386" y="-684.2" font-family="Helvetica,sans-Serif" font-weight="bold" font-size="9.00">components</text>
</g>
<g id="clust4" class="cluster">
<title>cluster_src/components/App</title>
<path fill="#ffffff" stroke="black" stroke-width="2" d="M348.25,-554.75C348.25,-554.75 423.75,-554.75 423.75,-554.75 429.75,-554.75 435.75,-560.75 435.75,-566.75 435.75,-566.75 435.75,-657.75 435.75,-657.75 435.75,-663.75 429.75,-669.75 423.75,-669.75 423.75,-669.75 348.25,-669.75 348.25,-669.75 342.25,-669.75 336.25,-663.75 336.25,-657.75 336.25,-657.75 336.25,-566.75 336.25,-566.75 336.25,-560.75 342.25,-554.75 348.25,-554.75"/>
<text text-anchor="middle" x="386" y="-657.2" font-family="Helvetica,sans-Serif" font-weight="bold" font-size="9.00">App</text>
</g>
<g id="clust5" class="cluster">
<title>cluster_src/components/DashboardPage</title>
<path fill="#ffffff" stroke="black" stroke-width="2" d="M321.25,-216.75C321.25,-216.75 450.75,-216.75 450.75,-216.75 456.75,-216.75 462.75,-222.75 462.75,-228.75 462.75,-228.75 462.75,-381.75 462.75,-381.75 462.75,-387.75 456.75,-393.75 450.75,-393.75 450.75,-393.75 321.25,-393.75 321.25,-393.75 315.25,-393.75 309.25,-387.75 309.25,-381.75 309.25,-381.75 309.25,-228.75 309.25,-228.75 309.25,-222.75 315.25,-216.75 321.25,-216.75"/>
<text text-anchor="middle" x="386" y="-381.2" font-family="Helvetica,sans-Serif" font-weight="bold" font-size="9.00">DashboardPage</text>
</g>
<g id="clust6" class="cluster">
<title>cluster_src/components/PostDetailPage</title>
<path fill="#ffffff" stroke="black" stroke-width="2" d="M338.5,-401.75C338.5,-401.75 433.5,-401.75 433.5,-401.75 439.5,-401.75 445.5,-407.75 445.5,-413.75 445.5,-413.75 445.5,-473.75 445.5,-473.75 445.5,-479.75 439.5,-485.75 433.5,-485.75 433.5,-485.75 338.5,-485.75 338.5,-485.75 332.5,-485.75 326.5,-479.75 326.5,-473.75 326.5,-473.75 326.5,-413.75 326.5,-413.75 326.5,-407.75 332.5,-401.75 338.5,-401.75"/>
<text text-anchor="middle" x="386" y="-473.2" font-family="Helvetica,sans-Serif" font-weight="bold" font-size="9.00">PostDetailPage</text>
</g>
<g id="clust7" class="cluster">
<title>cluster_src/components/PostEditorPage</title>
<path fill="#ffffff" stroke="black" stroke-width="2" d="M344.12,-493.75C344.12,-493.75 427.88,-493.75 427.88,-493.75 433.88,-493.75 439.88,-499.75 439.88,-505.75 439.88,-505.75 439.88,-534.75 439.88,-534.75 439.88,-540.75 433.88,-546.75 427.88,-546.75 427.88,-546.75 344.12,-546.75 344.12,-546.75 338.12,-546.75 332.12,-540.75 332.12,-534.75 332.12,-534.75 332.12,-505.75 332.12,-505.75 332.12,-499.75 338.12,-493.75 344.12,-493.75"/>
<text text-anchor="middle" x="386" y="-534.2" font-family="Helvetica,sans-Serif" font-weight="bold" font-size="9.00">PostEditorPage</text>
</g>
<g id="clust8" class="cluster">
<title>cluster_src/components/common</title>
<path fill="#ffffff" stroke="black" stroke-width="2" d="M354.25,-155.75C354.25,-155.75 417.75,-155.75 417.75,-155.75 423.75,-155.75 429.75,-161.75 429.75,-167.75 429.75,-167.75 429.75,-196.75 429.75,-196.75 429.75,-202.75 423.75,-208.75 417.75,-208.75 417.75,-208.75 354.25,-208.75 354.25,-208.75 348.25,-208.75 342.25,-202.75 342.25,-196.75 342.25,-196.75 342.25,-167.75 342.25,-167.75 342.25,-161.75 348.25,-155.75 354.25,-155.75"/>
<text text-anchor="middle" x="386" y="-196.2" font-family="Helvetica,sans-Serif" font-weight="bold" font-size="9.00">common</text>
</g>
<g id="clust9" class="cluster">
<title>cluster_src/lib</title>
<path fill="#ffffff" stroke="black" stroke-width="2" d="M490.75,-216.75C490.75,-216.75 548.25,-216.75 548.25,-216.75 554.25,-216.75 560.25,-222.75 560.25,-228.75 560.25,-228.75 560.25,-288.75 560.25,-288.75 560.25,-294.75 554.25,-300.75 548.25,-300.75 548.25,-300.75 490.75,-300.75 490.75,-300.75 484.75,-300.75 478.75,-294.75 478.75,-288.75 478.75,-288.75 478.75,-228.75 478.75,-228.75 478.75,-222.75 484.75,-216.75 490.75,-216.75"/>
<text text-anchor="middle" x="519.5" y="-288.2" font-family="Helvetica,sans-Serif" font-weight="bold" font-size="9.00">lib</text>
</g>
<g id="clust10" class="cluster">
<title>cluster_src/pages</title>
<path fill="#ffffff" stroke="black" stroke-width="2" d="M188.5,-123.75C188.5,-123.75 281.25,-123.75 281.25,-123.75 287.25,-123.75 293.25,-129.75 293.25,-135.75 293.25,-135.75 293.25,-412.75 293.25,-412.75 293.25,-418.75 287.25,-424.75 281.25,-424.75 281.25,-424.75 188.5,-424.75 188.5,-424.75 182.5,-424.75 176.5,-418.75 176.5,-412.75 176.5,-412.75 176.5,-135.75 176.5,-135.75 176.5,-129.75 182.5,-123.75 188.5,-123.75"/>
<text text-anchor="middle" x="234.88" y="-412.2" font-family="Helvetica,sans-Serif" font-weight="bold" font-size="9.00">pages</text>
</g>
<g id="clust11" class="cluster">
<title>cluster_src/router</title>
<path fill="#ffffff" stroke="black" stroke-width="2" d="M110.5,-278.75C110.5,-278.75 156.5,-278.75 156.5,-278.75 162.5,-278.75 168.5,-284.75 168.5,-290.75 168.5,-290.75 168.5,-319.75 168.5,-319.75 168.5,-325.75 162.5,-331.75 156.5,-331.75 156.5,-331.75 110.5,-331.75 110.5,-331.75 104.5,-331.75 98.5,-325.75 98.5,-319.75 98.5,-319.75 98.5,-290.75 98.5,-290.75 98.5,-284.75 104.5,-278.75 110.5,-278.75"/>
<text text-anchor="middle" x="133.5" y="-319.2" font-family="Helvetica,sans-Serif" font-weight="bold" font-size="9.00">router</text>
</g>
<g id="clust12" class="cluster">
<title>cluster_src/stores</title>
<path fill="#ffffff" stroke="black" stroke-width="2" d="M496.5,-523.75C496.5,-523.75 542.5,-523.75 542.5,-523.75 548.5,-523.75 554.5,-529.75 554.5,-535.75 554.5,-535.75 554.5,-564.75 554.5,-564.75 554.5,-570.75 548.5,-576.75 542.5,-576.75 542.5,-576.75 496.5,-576.75 496.5,-576.75 490.5,-576.75 484.5,-570.75 484.5,-564.75 484.5,-564.75 484.5,-535.75 484.5,-535.75 484.5,-529.75 490.5,-523.75 496.5,-523.75"/>
<text text-anchor="middle" x="519.5" y="-564.2" font-family="Helvetica,sans-Serif" font-weight="bold" font-size="9.00">stores</text>
</g>
<!-- src/App.vue -->
<g id="node1" class="node">
<title>src/App.vue</title>
<g id="a_node1"><a xlink:href="src/App.vue" xlink:title="App.vue">
<path fill="#41f083" stroke="black" d="M255.71,-612C255.71,-612 214.04,-612 214.04,-612 210.96,-612 207.88,-608.92 207.88,-605.83 207.88,-605.83 207.88,-599.67 207.88,-599.67 207.88,-596.58 210.96,-593.5 214.04,-593.5 214.04,-593.5 255.71,-593.5 255.71,-593.5 258.79,-593.5 261.88,-596.58 261.88,-599.67 261.88,-599.67 261.88,-605.83 261.88,-605.83 261.88,-608.92 258.79,-612 255.71,-612"/>
<text text-anchor="start" x="218" y="-599.45" font-family="Helvetica,sans-Serif" font-size="9.00">App.vue</text>
</a>
</g>
</g>
<!-- src/components/App/Footer.vue -->
<g id="node2" class="node">
<title>src/components/App/Footer.vue</title>
<g id="a_node2"><a xlink:href="src/components/App/Footer.vue" xlink:title="Footer.vue">
<path fill="#41f083" stroke="black" d="M409.21,-643C409.21,-643 362.79,-643 362.79,-643 359.71,-643 356.62,-639.92 356.62,-636.83 356.62,-636.83 356.62,-630.67 356.62,-630.67 356.62,-627.58 359.71,-624.5 362.79,-624.5 362.79,-624.5 409.21,-624.5 409.21,-624.5 412.29,-624.5 415.38,-627.58 415.38,-630.67 415.38,-630.67 415.38,-636.83 415.38,-636.83 415.38,-639.92 412.29,-643 409.21,-643"/>
<text text-anchor="start" x="364.62" y="-630.45" font-family="Helvetica,sans-Serif" font-size="9.00">Footer.vue</text>
</a>
</g>
</g>
<!-- src/App.vue&#45;&gt;src/components/App/Footer.vue -->
<g id="edge1" class="edge">
<title>src/App.vue&#45;&gt;src/components/App/Footer.vue</title>
<path fill="none" stroke="#000000" stroke-width="2" stroke-opacity="0.200000" d="M262.23,-609.03C274.13,-611.8 288.37,-615.04 301.25,-617.75 316.37,-620.93 333.07,-624.17 347.56,-626.9"/>
<polygon fill="#000000" fill-opacity="0.200000" stroke="#000000" stroke-width="2" stroke-opacity="0.200000" points="347.01,-628.93 353.29,-627.97 347.78,-624.81 347.01,-628.93"/>
</g>
<!-- src/components/App/Navbar.vue -->
<g id="node3" class="node">
<title>src/components/App/Navbar.vue</title>
<g id="a_node3"><a xlink:href="src/components/App/Navbar.vue" xlink:title="Navbar.vue">
<path fill="#41f083" stroke="black" d="M411.08,-581C411.08,-581 360.92,-581 360.92,-581 357.83,-581 354.75,-577.92 354.75,-574.83 354.75,-574.83 354.75,-568.67 354.75,-568.67 354.75,-565.58 357.83,-562.5 360.92,-562.5 360.92,-562.5 411.08,-562.5 411.08,-562.5 414.17,-562.5 417.25,-565.58 417.25,-568.67 417.25,-568.67 417.25,-574.83 417.25,-574.83 417.25,-577.92 414.17,-581 411.08,-581"/>
<text text-anchor="start" x="362.75" y="-568.45" font-family="Helvetica,sans-Serif" font-size="9.00">Navbar.vue</text>
</a>
</g>
</g>
<!-- src/App.vue&#45;&gt;src/components/App/Navbar.vue -->
<g id="edge2" class="edge">
<title>src/App.vue&#45;&gt;src/components/App/Navbar.vue</title>
<path fill="none" stroke="#000000" stroke-width="2" stroke-opacity="0.200000" d="M262.23,-596.47C274.13,-593.7 288.37,-590.46 301.25,-587.75 315.77,-584.7 331.75,-581.58 345.83,-578.92"/>
<polygon fill="#000000" fill-opacity="0.200000" stroke="#000000" stroke-width="2" stroke-opacity="0.200000" points="345.83,-581.06 351.34,-577.89 345.06,-576.93 345.83,-581.06"/>
</g>
<!-- src/components/App/Notifications.vue -->
<g id="node4" class="node">
<title>src/components/App/Notifications.vue</title>
<g id="a_node4"><a xlink:href="src/components/App/Notifications.vue" xlink:title="Notifications.vue">
<path fill="#41f083" stroke="black" d="M421.58,-612C421.58,-612 350.42,-612 350.42,-612 347.33,-612 344.25,-608.92 344.25,-605.83 344.25,-605.83 344.25,-599.67 344.25,-599.67 344.25,-596.58 347.33,-593.5 350.42,-593.5 350.42,-593.5 421.58,-593.5 421.58,-593.5 424.67,-593.5 427.75,-596.58 427.75,-599.67 427.75,-599.67 427.75,-605.83 427.75,-605.83 427.75,-608.92 424.67,-612 421.58,-612"/>
<text text-anchor="start" x="352.25" y="-599.45" font-family="Helvetica,sans-Serif" font-size="9.00">Notifications.vue</text>
</a>
</g>
</g>
<!-- src/App.vue&#45;&gt;src/components/App/Notifications.vue -->
<g id="edge3" class="edge">
<title>src/App.vue&#45;&gt;src/components/App/Notifications.vue</title>
<path fill="none" stroke="#000000" stroke-width="2" stroke-opacity="0.200000" d="M262.19,-602.75C282.3,-602.75 310.61,-602.75 334.98,-602.75"/>
<polygon fill="#000000" fill-opacity="0.200000" stroke="#000000" stroke-width="2" stroke-opacity="0.200000" points="334.73,-604.85 340.73,-602.75 334.73,-600.65 334.73,-604.85"/>
</g>
<!-- src/stores/auth.ts -->
<g id="node5" class="node">
<title>src/stores/auth.ts</title>
<g id="a_node5"><a xlink:href="src/stores/auth.ts" xlink:title="auth.ts">
<path fill="#ddfeff" stroke="black" d="M540.33,-550C540.33,-550 498.67,-550 498.67,-550 495.58,-550 492.5,-546.92 492.5,-543.83 492.5,-543.83 492.5,-537.67 492.5,-537.67 492.5,-534.58 495.58,-531.5 498.67,-531.5 498.67,-531.5 540.33,-531.5 540.33,-531.5 543.42,-531.5 546.5,-534.58 546.5,-537.67 546.5,-537.67 546.5,-543.83 546.5,-543.83 546.5,-546.92 543.42,-550 540.33,-550"/>
<text text-anchor="start" x="506" y="-537.45" font-family="Helvetica,sans-Serif" font-size="9.00">auth.ts</text>
</a>
</g>
</g>
<!-- src/App.vue&#45;&gt;src/stores/auth.ts -->
<g id="edge4" class="edge">
<title>src/App.vue&#45;&gt;src/stores/auth.ts</title>
<path fill="none" stroke="#000000" stroke-width="2" stroke-opacity="0.200000" d="M235.93,-612.24C236.69,-642.91 243.73,-739.68 301.25,-779.75 332.16,-801.28 441.62,-803.63 470.75,-779.75 504.88,-751.77 515.09,-610.71 517.7,-559.42"/>
<polygon fill="#000000" fill-opacity="0.200000" stroke="#000000" stroke-width="2" stroke-opacity="0.200000" points="519.8,-559.54 517.99,-553.45 515.61,-559.34 519.8,-559.54"/>
</g>
<!-- src/components/App/Navbar.vue&#45;&gt;src/stores/auth.ts -->
<g id="edge5" class="edge">
<title>src/components/App/Navbar.vue&#45;&gt;src/stores/auth.ts</title>
<path fill="none" stroke="#000000" stroke-width="2" stroke-opacity="0.200000" d="M417.5,-564.56C437.19,-559.92 462.88,-553.86 483.42,-549.02"/>
<polygon fill="#000000" fill-opacity="0.200000" stroke="#000000" stroke-width="2" stroke-opacity="0.200000" points="483.86,-551.07 489.22,-547.65 482.9,-546.99 483.86,-551.07"/>
</g>
<!-- src/lib/storage.ts -->
<g id="node8" class="node">
<title>src/lib/storage.ts</title>
<g id="a_node8"><a xlink:href="src/lib/storage.ts" xlink:title="storage.ts">
<path fill="#ddfeff" stroke="black" d="M541.21,-243C541.21,-243 497.79,-243 497.79,-243 494.71,-243 491.62,-239.92 491.62,-236.83 491.62,-236.83 491.62,-230.67 491.62,-230.67 491.62,-227.58 494.71,-224.5 497.79,-224.5 497.79,-224.5 541.21,-224.5 541.21,-224.5 544.29,-224.5 547.38,-227.58 547.38,-230.67 547.38,-230.67 547.38,-236.83 547.38,-236.83 547.38,-239.92 544.29,-243 541.21,-243"/>
<text text-anchor="start" x="499.62" y="-230.45" font-family="Helvetica,sans-Serif" font-size="9.00">storage.ts</text>
</a>
</g>
</g>
<!-- src/stores/auth.ts&#45;&gt;src/lib/storage.ts -->
<g id="edge64" class="edge">
<title>src/stores/auth.ts&#45;&gt;src/lib/storage.ts</title>
<path fill="none" stroke="#000000" stroke-width="2" stroke-opacity="0.200000" d="M517.07,-531.11C509,-498.57 483.14,-389.6 474.75,-297.75 473.05,-279.16 469.34,-273.62 474.75,-255.75 475.68,-252.68 476.25,-251.76 478.75,-249.75 480.29,-248.51 481.93,-247.36 483.65,-246.28"/>
<polygon fill="#000000" fill-opacity="0.200000" stroke="#000000" stroke-width="2" stroke-opacity="0.200000" points="484.53,-248.2 488.84,-243.52 482.55,-244.49 484.53,-248.2"/>
</g>
<!-- src/lib/supabase.ts -->
<g id="node9" class="node">
<title>src/lib/supabase.ts</title>
<g id="a_node9"><a xlink:href="src/lib/supabase.ts" xlink:title="supabase.ts">
<path fill="#ddfeff" stroke="black" d="M546.08,-274C546.08,-274 492.92,-274 492.92,-274 489.83,-274 486.75,-270.92 486.75,-267.83 486.75,-267.83 486.75,-261.67 486.75,-261.67 486.75,-258.58 489.83,-255.5 492.92,-255.5 492.92,-255.5 546.08,-255.5 546.08,-255.5 549.17,-255.5 552.25,-258.58 552.25,-261.67 552.25,-261.67 552.25,-267.83 552.25,-267.83 552.25,-270.92 549.17,-274 546.08,-274"/>
<text text-anchor="start" x="494.75" y="-261.45" font-family="Helvetica,sans-Serif" font-size="9.00">supabase.ts</text>
</a>
</g>
</g>
<!-- src/stores/auth.ts&#45;&gt;src/lib/supabase.ts -->
<g id="edge65" class="edge">
<title>src/stores/auth.ts&#45;&gt;src/lib/supabase.ts</title>
<path fill="none" stroke="#000000" stroke-width="2" stroke-opacity="0.200000" d="M519.5,-531.13C519.5,-448.58 519.5,-366.03 519.5,-283.48"/>
<polygon fill="#000000" fill-opacity="0.200000" stroke="#000000" stroke-width="2" stroke-opacity="0.200000" points="521.6,-283.48 519.5,-277.48 517.4,-283.48 521.6,-283.48"/>
</g>
<!-- src/assets/main.css -->
<g id="node6" class="node">
<title>src/assets/main.css</title>
<g id="a_node6"><a xlink:href="src/assets/main.css" xlink:title="main.css">
<path fill="#ffffcc" stroke="black" d="M154.33,-244C154.33,-244 112.67,-244 112.67,-244 109.58,-244 106.5,-240.92 106.5,-237.83 106.5,-237.83 106.5,-231.67 106.5,-231.67 106.5,-228.58 109.58,-225.5 112.67,-225.5 112.67,-225.5 154.33,-225.5 154.33,-225.5 157.42,-225.5 160.5,-228.58 160.5,-231.67 160.5,-231.67 160.5,-237.83 160.5,-237.83 160.5,-240.92 157.42,-244 154.33,-244"/>
<text text-anchor="start" x="115.5" y="-231.45" font-family="Helvetica,sans-Serif" font-size="9.00">main.css</text>
</a>
</g>
</g>
<!-- src/components/DashboardPage/DashboardCommentsList.vue -->
<g id="node7" class="node">
<title>src/components/DashboardPage/DashboardCommentsList.vue</title>
<g id="a_node7"><a xlink:href="src/components/DashboardPage/DashboardCommentsList.vue" xlink:title="DashboardCommentsList.vue">
<path fill="#41f083" stroke="black" d="M448.58,-305C448.58,-305 323.42,-305 323.42,-305 320.33,-305 317.25,-301.92 317.25,-298.83 317.25,-298.83 317.25,-292.67 317.25,-292.67 317.25,-289.58 320.33,-286.5 323.42,-286.5 323.42,-286.5 448.58,-286.5 448.58,-286.5 451.67,-286.5 454.75,-289.58 454.75,-292.67 454.75,-292.67 454.75,-298.83 454.75,-298.83 454.75,-301.92 451.67,-305 448.58,-305"/>
<text text-anchor="start" x="325.25" y="-292.45" font-family="Helvetica,sans-Serif" font-size="9.00">DashboardCommentsList.vue</text>
</a>
</g>
</g>
<!-- src/components/DashboardPage/DashboardCommentsList.vue&#45;&gt;src/stores/auth.ts -->
<g id="edge8" class="edge">
<title>src/components/DashboardPage/DashboardCommentsList.vue&#45;&gt;src/stores/auth.ts</title>
<path fill="none" stroke="#000000" stroke-width="2" stroke-opacity="0.200000" d="M455.03,-301.28C460.83,-303.87 466.21,-307.29 470.75,-311.75 500.75,-341.25 513.47,-473.04 517.23,-522.19"/>
<polygon fill="#000000" fill-opacity="0.200000" stroke="#000000" stroke-width="2" stroke-opacity="0.200000" points="515.13,-522.26 517.66,-528.09 519.32,-521.96 515.13,-522.26"/>
</g>
<!-- src/components/DashboardPage/DashboardCommentsList.vue&#45;&gt;src/lib/storage.ts -->
<g id="edge6" class="edge">
<title>src/components/DashboardPage/DashboardCommentsList.vue&#45;&gt;src/lib/storage.ts</title>
<path fill="none" stroke="#000000" stroke-width="2" stroke-opacity="0.200000" d="M455.19,-289.78C460.89,-287.26 466.2,-283.99 470.75,-279.75 480.85,-270.35 469.61,-260.08 478.75,-249.75 480.26,-248.04 481.98,-246.52 483.83,-245.15"/>
<polygon fill="#000000" fill-opacity="0.200000" stroke="#000000" stroke-width="2" stroke-opacity="0.200000" points="484.79,-247.02 488.9,-242.17 482.66,-243.4 484.79,-247.02"/>
</g>
<!-- src/components/DashboardPage/DashboardCommentsList.vue&#45;&gt;src/lib/supabase.ts -->
<g id="edge7" class="edge">
<title>src/components/DashboardPage/DashboardCommentsList.vue&#45;&gt;src/lib/supabase.ts</title>
<path fill="none" stroke="#000000" stroke-width="2" stroke-opacity="0.200000" d="M442.61,-286.06C452.04,-284.15 461.71,-282.03 470.75,-279.75 474.07,-278.91 477.49,-277.98 480.92,-277"/>
<polygon fill="#000000" fill-opacity="0.200000" stroke="#000000" stroke-width="2" stroke-opacity="0.200000" points="481.31,-279.08 486.46,-275.35 480.11,-275.05 481.31,-279.08"/>
</g>
<!-- src/components/DashboardPage/DashboardDraftsList.vue -->
<g id="node10" class="node">
<title>src/components/DashboardPage/DashboardDraftsList.vue</title>
<g id="a_node10"><a xlink:href="src/components/DashboardPage/DashboardDraftsList.vue" xlink:title="DashboardDraftsList.vue">
<path fill="#41f083" stroke="black" d="M438.46,-367C438.46,-367 333.54,-367 333.54,-367 330.46,-367 327.38,-363.92 327.38,-360.83 327.38,-360.83 327.38,-354.67 327.38,-354.67 327.38,-351.58 330.46,-348.5 333.54,-348.5 333.54,-348.5 438.46,-348.5 438.46,-348.5 441.54,-348.5 444.62,-351.58 444.62,-354.67 444.62,-354.67 444.62,-360.83 444.62,-360.83 444.62,-363.92 441.54,-367 438.46,-367"/>
<text text-anchor="start" x="335.38" y="-354.45" font-family="Helvetica,sans-Serif" font-size="9.00">DashboardDraftsList.vue</text>
</a>
</g>
</g>
<!-- src/components/DashboardPage/DashboardDraftsList.vue&#45;&gt;src/stores/auth.ts -->
<g id="edge10" class="edge">
<title>src/components/DashboardPage/DashboardDraftsList.vue&#45;&gt;src/stores/auth.ts</title>
<path fill="none" stroke="#000000" stroke-width="2" stroke-opacity="0.200000" d="M421.11,-367.48C438.1,-373.89 457.73,-383.9 470.75,-398.75 502.49,-434.94 513.29,-493.02 516.84,-522.43"/>
<polygon fill="#000000" fill-opacity="0.200000" stroke="#000000" stroke-width="2" stroke-opacity="0.200000" points="514.74,-522.47 517.47,-528.22 518.91,-522.03 514.74,-522.47"/>
</g>
<!-- src/components/DashboardPage/DashboardDraftsList.vue&#45;&gt;src/lib/supabase.ts -->
<g id="edge9" class="edge">
<title>src/components/DashboardPage/DashboardDraftsList.vue&#45;&gt;src/lib/supabase.ts</title>
<path fill="none" stroke="#000000" stroke-width="2" stroke-opacity="0.200000" d="M444.93,-353.19C454.09,-350.68 463.06,-347.03 470.75,-341.75 491.61,-327.41 505.12,-300.66 512.27,-282.78"/>
<polygon fill="#000000" fill-opacity="0.200000" stroke="#000000" stroke-width="2" stroke-opacity="0.200000" points="514.23,-283.54 514.37,-277.18 510.29,-282.06 514.23,-283.54"/>
</g>
<!-- src/components/DashboardPage/DashboardLikesList.vue -->
<g id="node11" class="node">
<title>src/components/DashboardPage/DashboardLikesList.vue</title>
<g id="a_node11"><a xlink:href="src/components/DashboardPage/DashboardLikesList.vue" xlink:title="DashboardLikesList.vue">
<path fill="#41f083" stroke="black" d="M437.33,-243C437.33,-243 334.67,-243 334.67,-243 331.58,-243 328.5,-239.92 328.5,-236.83 328.5,-236.83 328.5,-230.67 328.5,-230.67 328.5,-227.58 331.58,-224.5 334.67,-224.5 334.67,-224.5 437.33,-224.5 437.33,-224.5 440.42,-224.5 443.5,-227.58 443.5,-230.67 443.5,-230.67 443.5,-236.83 443.5,-236.83 443.5,-239.92 440.42,-243 437.33,-243"/>
<text text-anchor="start" x="336.5" y="-230.45" font-family="Helvetica,sans-Serif" font-size="9.00">DashboardLikesList.vue</text>
</a>
</g>
</g>
<!-- src/components/DashboardPage/DashboardLikesList.vue&#45;&gt;src/stores/auth.ts -->
<g id="edge13" class="edge">
<title>src/components/DashboardPage/DashboardLikesList.vue&#45;&gt;src/stores/auth.ts</title>
<path fill="none" stroke="#000000" stroke-width="2" stroke-opacity="0.200000" d="M443.6,-234.86C453.79,-237.56 463.47,-242.16 470.75,-249.75 479.15,-258.5 476.86,-291.77 478.75,-303.75 491.65,-385.43 508.4,-482.7 515.31,-522.45"/>
<polygon fill="#000000" fill-opacity="0.200000" stroke="#000000" stroke-width="2" stroke-opacity="0.200000" points="513.23,-522.74 516.33,-528.3 517.37,-522.02 513.23,-522.74"/>
</g>
<!-- src/components/DashboardPage/DashboardLikesList.vue&#45;&gt;src/lib/storage.ts -->
<g id="edge11" class="edge">
<title>src/components/DashboardPage/DashboardLikesList.vue&#45;&gt;src/lib/storage.ts</title>
<path fill="none" stroke="#000000" stroke-width="2" stroke-opacity="0.200000" d="M443.91,-233.75C456.97,-233.75 470.49,-233.75 482.39,-233.75"/>
<polygon fill="#000000" fill-opacity="0.200000" stroke="#000000" stroke-width="2" stroke-opacity="0.200000" points="482.1,-235.85 488.1,-233.75 482.1,-231.65 482.1,-235.85"/>
</g>
<!-- src/components/DashboardPage/DashboardLikesList.vue&#45;&gt;src/lib/supabase.ts -->
<g id="edge12" class="edge">
<title>src/components/DashboardPage/DashboardLikesList.vue&#45;&gt;src/lib/supabase.ts</title>
<path fill="none" stroke="#000000" stroke-width="2" stroke-opacity="0.200000" d="M442.61,-243.44C452.04,-245.35 461.71,-247.47 470.75,-249.75 474.07,-250.58 477.49,-251.52 480.92,-252.5"/>
<polygon fill="#000000" fill-opacity="0.200000" stroke="#000000" stroke-width="2" stroke-opacity="0.200000" points="480.11,-254.45 486.46,-254.15 481.31,-250.42 480.11,-254.45"/>
</g>
<!-- src/components/DashboardPage/DashboardPostsList.vue -->
<g id="node12" class="node">
<title>src/components/DashboardPage/DashboardPostsList.vue</title>
<g id="a_node12"><a xlink:href="src/components/DashboardPage/DashboardPostsList.vue" xlink:title="DashboardPostsList.vue">
<path fill="#41f083" stroke="black" d="M437.71,-336C437.71,-336 334.29,-336 334.29,-336 331.21,-336 328.12,-332.92 328.12,-329.83 328.12,-329.83 328.12,-323.67 328.12,-323.67 328.12,-320.58 331.21,-317.5 334.29,-317.5 334.29,-317.5 437.71,-317.5 437.71,-317.5 440.79,-317.5 443.88,-320.58 443.88,-323.67 443.88,-323.67 443.88,-329.83 443.88,-329.83 443.88,-332.92 440.79,-336 437.71,-336"/>
<text text-anchor="start" x="336.12" y="-323.45" font-family="Helvetica,sans-Serif" font-size="9.00">DashboardPostsList.vue</text>
</a>
</g>
</g>
<!-- src/components/DashboardPage/DashboardPostsList.vue&#45;&gt;src/stores/auth.ts -->
<g id="edge15" class="edge">
<title>src/components/DashboardPage/DashboardPostsList.vue&#45;&gt;src/stores/auth.ts</title>
<path fill="none" stroke="#000000" stroke-width="2" stroke-opacity="0.200000" d="M444.37,-328.73C454.14,-331.42 463.46,-335.8 470.75,-342.75 496.81,-367.59 511.62,-478.16 516.59,-522.38"/>
<polygon fill="#000000" fill-opacity="0.200000" stroke="#000000" stroke-width="2" stroke-opacity="0.200000" points="514.49,-522.46 517.23,-528.2 518.66,-522.01 514.49,-522.46"/>
</g>
<!-- src/components/DashboardPage/DashboardPostsList.vue&#45;&gt;src/lib/supabase.ts -->
<g id="edge14" class="edge">
<title>src/components/DashboardPage/DashboardPostsList.vue&#45;&gt;src/lib/supabase.ts</title>
<path fill="none" stroke="#000000" stroke-width="2" stroke-opacity="0.200000" d="M444.35,-320.38C453.49,-318.08 462.6,-314.97 470.75,-310.75 484.57,-303.59 497.11,-291.17 505.87,-281.03"/>
<polygon fill="#000000" fill-opacity="0.200000" stroke="#000000" stroke-width="2" stroke-opacity="0.200000" points="507.41,-282.46 509.61,-276.5 504.17,-279.79 507.41,-282.46"/>
</g>
<!-- src/components/DashboardPage/DashboardStatistics.vue -->
<g id="node13" class="node">
<title>src/components/DashboardPage/DashboardStatistics.vue</title>
<g id="a_node13"><a xlink:href="src/components/DashboardPage/DashboardStatistics.vue" xlink:title="DashboardStatistics.vue">
<path fill="#41f083" stroke="black" d="M437.33,-274C437.33,-274 334.67,-274 334.67,-274 331.58,-274 328.5,-270.92 328.5,-267.83 328.5,-267.83 328.5,-261.67 328.5,-261.67 328.5,-258.58 331.58,-255.5 334.67,-255.5 334.67,-255.5 437.33,-255.5 437.33,-255.5 440.42,-255.5 443.5,-258.58 443.5,-261.67 443.5,-261.67 443.5,-267.83 443.5,-267.83 443.5,-270.92 440.42,-274 437.33,-274"/>
<text text-anchor="start" x="336.5" y="-261.45" font-family="Helvetica,sans-Serif" font-size="9.00">DashboardStatistics.vue</text>
</a>
</g>
</g>
<!-- src/components/DashboardPage/DashboardStatistics.vue&#45;&gt;src/stores/auth.ts -->
<g id="edge18" class="edge">
<title>src/components/DashboardPage/DashboardStatistics.vue&#45;&gt;src/stores/auth.ts</title>
<path fill="none" stroke="#000000" stroke-width="2" stroke-opacity="0.200000" d="M443.83,-266.17C453.88,-268.87 463.45,-273.4 470.75,-280.75 479.39,-289.45 506.86,-464.7 515.72,-522.46"/>
<polygon fill="#000000" fill-opacity="0.200000" stroke="#000000" stroke-width="2" stroke-opacity="0.200000" points="513.62,-522.65 516.61,-528.26 517.78,-522.01 513.62,-522.65"/>
</g>
<!-- src/components/DashboardPage/DashboardStatistics.vue&#45;&gt;src/lib/storage.ts -->
<g id="edge16" class="edge">
<title>src/components/DashboardPage/DashboardStatistics.vue&#45;&gt;src/lib/storage.ts</title>
<path fill="none" stroke="#000000" stroke-width="2" stroke-opacity="0.200000" d="M442.61,-255.06C452.04,-253.15 461.71,-251.03 470.75,-248.75 474.6,-247.78 478.59,-246.68 482.56,-245.53"/>
<polygon fill="#000000" fill-opacity="0.200000" stroke="#000000" stroke-width="2" stroke-opacity="0.200000" points="483.09,-247.56 488.23,-243.82 481.88,-243.54 483.09,-247.56"/>
</g>
<!-- src/components/DashboardPage/DashboardStatistics.vue&#45;&gt;src/lib/supabase.ts -->
<g id="edge17" class="edge">
<title>src/components/DashboardPage/DashboardStatistics.vue&#45;&gt;src/lib/supabase.ts</title>
<path fill="none" stroke="#000000" stroke-width="2" stroke-opacity="0.200000" d="M443.91,-264.75C455.3,-264.75 467.05,-264.75 477.76,-264.75"/>
<polygon fill="#000000" fill-opacity="0.200000" stroke="#000000" stroke-width="2" stroke-opacity="0.200000" points="477.45,-266.85 483.45,-264.75 477.45,-262.65 477.45,-266.85"/>
</g>
<!-- src/components/PostDetailPage/CommentSystem.vue -->
<g id="node14" class="node">
<title>src/components/PostDetailPage/CommentSystem.vue</title>
<g id="a_node14"><a xlink:href="src/components/PostDetailPage/CommentSystem.vue" xlink:title="CommentSystem.vue">
<path fill="#41f083" stroke="black" d="M431.33,-428C431.33,-428 340.67,-428 340.67,-428 337.58,-428 334.5,-424.92 334.5,-421.83 334.5,-421.83 334.5,-415.67 334.5,-415.67 334.5,-412.58 337.58,-409.5 340.67,-409.5 340.67,-409.5 431.33,-409.5 431.33,-409.5 434.42,-409.5 437.5,-412.58 437.5,-415.67 437.5,-415.67 437.5,-421.83 437.5,-421.83 437.5,-424.92 434.42,-428 431.33,-428"/>
<text text-anchor="start" x="342.5" y="-415.45" font-family="Helvetica,sans-Serif" font-size="9.00">CommentSystem.vue</text>
</a>
</g>
</g>
<!-- src/components/PostDetailPage/CommentSystem.vue&#45;&gt;src/stores/auth.ts -->
<g id="edge21" class="edge">
<title>src/components/PostDetailPage/CommentSystem.vue&#45;&gt;src/stores/auth.ts</title>
<path fill="none" stroke="#000000" stroke-width="2" stroke-opacity="0.200000" d="M437.71,-420.54C449.5,-422.99 461.34,-427.32 470.75,-434.75 498.46,-456.62 510.6,-498.09 515.5,-522.16"/>
<polygon fill="#000000" fill-opacity="0.200000" stroke="#000000" stroke-width="2" stroke-opacity="0.200000" points="513.44,-522.53 516.59,-528.05 517.57,-521.77 513.44,-522.53"/>
</g>
<!-- src/components/PostDetailPage/CommentSystem.vue&#45;&gt;src/lib/storage.ts -->
<g id="edge19" class="edge">
<title>src/components/PostDetailPage/CommentSystem.vue&#45;&gt;src/lib/storage.ts</title>
<path fill="none" stroke="#000000" stroke-width="2" stroke-opacity="0.200000" d="M437.94,-415.78C450.45,-412.54 462.58,-406.77 470.75,-396.75 491.43,-371.4 459.71,-276.35 478.75,-249.75 480.21,-247.71 481.98,-245.93 483.94,-244.37"/>
<polygon fill="#000000" fill-opacity="0.200000" stroke="#000000" stroke-width="2" stroke-opacity="0.200000" points="484.64,-246.41 488.66,-241.49 482.45,-242.83 484.64,-246.41"/>
</g>
<!-- src/components/PostDetailPage/CommentSystem.vue&#45;&gt;src/lib/supabase.ts -->
<g id="edge20" class="edge">
<title>src/components/PostDetailPage/CommentSystem.vue&#45;&gt;src/lib/supabase.ts</title>
<path fill="none" stroke="#000000" stroke-width="2" stroke-opacity="0.200000" d="M437.86,-413.6C449.79,-410.31 461.65,-405.06 470.75,-396.75 503.74,-366.61 513.97,-311.92 517.12,-283.31"/>
<polygon fill="#000000" fill-opacity="0.200000" stroke="#000000" stroke-width="2" stroke-opacity="0.200000" points="519.2,-283.55 517.68,-277.38 515.02,-283.16 519.2,-283.55"/>
</g>
<!-- src/components/PostDetailPage/RichTextContent.vue -->
<g id="node15" class="node">
<title>src/components/PostDetailPage/RichTextContent.vue</title>
<g id="a_node15"><a xlink:href="src/components/PostDetailPage/RichTextContent.vue" xlink:title="RichTextContent.vue">
<path fill="#41f083" stroke="black" d="M430.21,-459C430.21,-459 341.79,-459 341.79,-459 338.71,-459 335.62,-455.92 335.62,-452.83 335.62,-452.83 335.62,-446.67 335.62,-446.67 335.62,-443.58 338.71,-440.5 341.79,-440.5 341.79,-440.5 430.21,-440.5 430.21,-440.5 433.29,-440.5 436.38,-443.58 436.38,-446.67 436.38,-446.67 436.38,-452.83 436.38,-452.83 436.38,-455.92 433.29,-459 430.21,-459"/>
<text text-anchor="start" x="343.62" y="-446.45" font-family="Helvetica,sans-Serif" font-size="9.00">RichTextContent.vue</text>
</a>
</g>
</g>
<!-- src/components/PostEditorPage/RichTextEditor.vue -->
<g id="node16" class="node">
<title>src/components/PostEditorPage/RichTextEditor.vue</title>
<g id="a_node16"><a xlink:href="src/components/PostEditorPage/RichTextEditor.vue" xlink:title="RichTextEditor.vue">
<path fill="#41f083" stroke="black" d="M425.71,-520C425.71,-520 346.29,-520 346.29,-520 343.21,-520 340.12,-516.92 340.12,-513.83 340.12,-513.83 340.12,-507.67 340.12,-507.67 340.12,-504.58 343.21,-501.5 346.29,-501.5 346.29,-501.5 425.71,-501.5 425.71,-501.5 428.79,-501.5 431.88,-504.58 431.88,-507.67 431.88,-507.67 431.88,-513.83 431.88,-513.83 431.88,-516.92 428.79,-520 425.71,-520"/>
<text text-anchor="start" x="348.12" y="-507.45" font-family="Helvetica,sans-Serif" font-size="9.00">RichTextEditor.vue</text>
</a>
</g>
</g>
<!-- src/components/PostEditorPage/RichTextEditor.vue&#45;&gt;src/stores/auth.ts -->
<g id="edge23" class="edge">
<title>src/components/PostEditorPage/RichTextEditor.vue&#45;&gt;src/stores/auth.ts</title>
<path fill="none" stroke="#000000" stroke-width="2" stroke-opacity="0.200000" d="M429.69,-520.49C447.03,-524.45 466.82,-528.96 483.31,-532.72"/>
<polygon fill="#000000" fill-opacity="0.200000" stroke="#000000" stroke-width="2" stroke-opacity="0.200000" points="482.82,-534.76 489.14,-534.05 483.76,-530.67 482.82,-534.76"/>
</g>
<!-- src/components/PostEditorPage/RichTextEditor.vue&#45;&gt;src/lib/supabase.ts -->
<g id="edge22" class="edge">
<title>src/components/PostEditorPage/RichTextEditor.vue&#45;&gt;src/lib/supabase.ts</title>
<path fill="none" stroke="#000000" stroke-width="2" stroke-opacity="0.200000" d="M432.14,-508.04C446.22,-505.01 460.68,-499.3 470.75,-488.75 499.13,-459.01 512.81,-331.2 517.03,-283.13"/>
<polygon fill="#000000" fill-opacity="0.200000" stroke="#000000" stroke-width="2" stroke-opacity="0.200000" points="519.1,-283.55 517.51,-277.4 514.92,-283.2 519.1,-283.55"/>
</g>
<!-- src/components/common/PostCard.vue -->
<g id="node17" class="node">
<title>src/components/common/PostCard.vue</title>
<g id="a_node17"><a xlink:href="src/components/common/PostCard.vue" xlink:title="PostCard.vue">
<path fill="#41f083" stroke="black" d="M415.58,-182C415.58,-182 356.42,-182 356.42,-182 353.33,-182 350.25,-178.92 350.25,-175.83 350.25,-175.83 350.25,-169.67 350.25,-169.67 350.25,-166.58 353.33,-163.5 356.42,-163.5 356.42,-163.5 415.58,-163.5 415.58,-163.5 418.67,-163.5 421.75,-166.58 421.75,-169.67 421.75,-169.67 421.75,-175.83 421.75,-175.83 421.75,-178.92 418.67,-182 415.58,-182"/>
<text text-anchor="start" x="358.25" y="-169.45" font-family="Helvetica,sans-Serif" font-size="9.00">PostCard.vue</text>
</a>
</g>
</g>
<!-- src/components/common/PostCard.vue&#45;&gt;src/lib/storage.ts -->
<g id="edge24" class="edge">
<title>src/components/common/PostCard.vue&#45;&gt;src/lib/storage.ts</title>
<path fill="none" stroke="#000000" stroke-width="2" stroke-opacity="0.200000" d="M407.84,-182.42C429.96,-192.68 465.08,-208.97 489.81,-220.44"/>
<polygon fill="#000000" fill-opacity="0.200000" stroke="#000000" stroke-width="2" stroke-opacity="0.200000" points="488.69,-222.24 495.01,-222.86 490.46,-218.43 488.69,-222.24"/>
</g>
<!-- src/main.ts -->
<g id="node18" class="node">
<title>src/main.ts</title>
<g id="a_node18"><a xlink:href="src/main.ts" xlink:title="main.ts">
<path fill="#ddfeff" stroke="black" d="M74.08,-244C74.08,-244 32.42,-244 32.42,-244 29.33,-244 26.25,-240.92 26.25,-237.83 26.25,-237.83 26.25,-231.67 26.25,-231.67 26.25,-228.58 29.33,-225.5 32.42,-225.5 32.42,-225.5 74.08,-225.5 74.08,-225.5 77.17,-225.5 80.25,-228.58 80.25,-231.67 80.25,-231.67 80.25,-237.83 80.25,-237.83 80.25,-240.92 77.17,-244 74.08,-244"/>
<text text-anchor="start" x="38.62" y="-231.45" font-family="Helvetica,sans-Serif" font-size="9.00">main.ts</text>
</a>
</g>
</g>
<!-- src/main.ts&#45;&gt;src/App.vue -->
<g id="edge25" class="edge">
<title>src/main.ts&#45;&gt;src/App.vue</title>
<path fill="none" stroke="#000000" stroke-width="2" stroke-opacity="0.200000" d="M69.55,-225.02C93.95,-210.86 141.67,-188.91 168.5,-214.75 177.03,-222.96 174.41,-416.09 176.5,-427.75 187.12,-487.04 213.18,-553.85 226.21,-584.99"/>
<polygon fill="#000000" fill-opacity="0.200000" stroke="#000000" stroke-width="2" stroke-opacity="0.200000" points="224.2,-585.64 228.47,-590.34 228.07,-584 224.2,-585.64"/>
</g>
<!-- src/main.ts&#45;&gt;src/assets/main.css -->
<g id="edge26" class="edge">
<title>src/main.ts&#45;&gt;src/assets/main.css</title>
<path fill="none" stroke="#000000" stroke-width="2" stroke-opacity="0.200000" d="M80.74,-234.75C86.1,-234.75 91.8,-234.75 97.4,-234.75"/>
<polygon fill="#000000" fill-opacity="0.200000" stroke="#000000" stroke-width="2" stroke-opacity="0.200000" points="97.01,-236.85 103.01,-234.75 97.01,-232.65 97.01,-236.85"/>
</g>
<!-- src/router/index.ts -->
<g id="node19" class="node">
<title>src/router/index.ts</title>
<g id="a_node19"><a xlink:href="src/router/index.ts" xlink:title="index.ts">
<path fill="#ddfeff" stroke="black" d="M154.33,-305C154.33,-305 112.67,-305 112.67,-305 109.58,-305 106.5,-301.92 106.5,-298.83 106.5,-298.83 106.5,-292.67 106.5,-292.67 106.5,-289.58 109.58,-286.5 112.67,-286.5 112.67,-286.5 154.33,-286.5 154.33,-286.5 157.42,-286.5 160.5,-289.58 160.5,-292.67 160.5,-292.67 160.5,-298.83 160.5,-298.83 160.5,-301.92 157.42,-305 154.33,-305"/>
<text text-anchor="start" x="117.75" y="-292.45" font-family="Helvetica,sans-Serif" font-size="9.00">index.ts</text>
</a>
</g>
</g>
<!-- src/main.ts&#45;&gt;src/router/index.ts -->
<g id="edge27" class="edge">
<title>src/main.ts&#45;&gt;src/router/index.ts</title>
<path fill="none" stroke="#000000" stroke-width="2" stroke-opacity="0.200000" d="M64.08,-244.18C72.82,-252.36 86.09,-264.35 98.5,-273.75 101.89,-276.32 105.58,-278.91 109.24,-281.36"/>
<polygon fill="#000000" fill-opacity="0.200000" stroke="#000000" stroke-width="2" stroke-opacity="0.200000" points="107.89,-282.98 114.06,-284.49 110.18,-279.46 107.89,-282.98"/>
</g>
<!-- src/router/index.ts&#45;&gt;src/stores/auth.ts -->
<g id="edge63" class="edge">
<title>src/router/index.ts&#45;&gt;src/stores/auth.ts</title>
<path fill="none" stroke="#000000" stroke-width="2" stroke-opacity="0.200000" d="M134.54,-305.49C134.92,-372.52 138.77,-764.04 176.5,-798.75 224.62,-843.02 420.48,-840.57 470.75,-798.75 507.67,-768.03 516.17,-612.86 518.01,-559.11"/>
<polygon fill="#000000" fill-opacity="0.200000" stroke="#000000" stroke-width="2" stroke-opacity="0.200000" points="520.11,-559.39 518.19,-553.33 515.91,-559.26 520.11,-559.39"/>
</g>
<!-- src/pages/AuthPage.vue -->
<g id="node20" class="node">
<title>src/pages/AuthPage.vue</title>
<g id="a_node20"><a xlink:href="src/pages/AuthPage.vue" xlink:title="AuthPage.vue">
<path fill="#41f083" stroke="black" d="M265.58,-367C265.58,-367 204.17,-367 204.17,-367 201.08,-367 198,-363.92 198,-360.83 198,-360.83 198,-354.67 198,-354.67 198,-351.58 201.08,-348.5 204.17,-348.5 204.17,-348.5 265.58,-348.5 265.58,-348.5 268.67,-348.5 271.75,-351.58 271.75,-354.67 271.75,-354.67 271.75,-360.83 271.75,-360.83 271.75,-363.92 268.67,-367 265.58,-367"/>
<text text-anchor="start" x="206" y="-354.45" font-family="Helvetica,sans-Serif" font-size="9.00">AuthPage.vue</text>
</a>
</g>
</g>
<!-- src/router/index.ts&#45;&gt;src/pages/AuthPage.vue -->
<g id="edge54" class="edge">
<title>src/router/index.ts&#45;&gt;src/pages/AuthPage.vue</title>
<path fill="none" stroke="#000000" stroke-width="2" stroke-dasharray="5,2" stroke-opacity="0.200000" d="M140.75,-305.32C148.09,-315.8 161.21,-332.35 176.5,-341.75 180.52,-344.22 184.93,-346.32 189.46,-348.1"/>
<polygon fill="#000000" fill-opacity="0.200000" stroke="#000000" stroke-width="2" stroke-opacity="0.200000" points="188.48,-349.98 194.83,-349.98 189.86,-346.02 188.48,-349.98"/>
</g>
<!-- src/pages/DashboardPage.vue -->
<g id="node21" class="node">
<title>src/pages/DashboardPage.vue</title>
<g id="a_node21"><a xlink:href="src/pages/DashboardPage.vue" xlink:title="DashboardPage.vue">
<path fill="#41f083" stroke="black" d="M279.08,-305C279.08,-305 190.67,-305 190.67,-305 187.58,-305 184.5,-301.92 184.5,-298.83 184.5,-298.83 184.5,-292.67 184.5,-292.67 184.5,-289.58 187.58,-286.5 190.67,-286.5 190.67,-286.5 279.08,-286.5 279.08,-286.5 282.17,-286.5 285.25,-289.58 285.25,-292.67 285.25,-292.67 285.25,-298.83 285.25,-298.83 285.25,-301.92 282.17,-305 279.08,-305"/>
<text text-anchor="start" x="192.5" y="-292.45" font-family="Helvetica,sans-Serif" font-size="9.00">DashboardPage.vue</text>
</a>
</g>
</g>
<!-- src/router/index.ts&#45;&gt;src/pages/DashboardPage.vue -->
<g id="edge55" class="edge">
<title>src/router/index.ts&#45;&gt;src/pages/DashboardPage.vue</title>
<path fill="none" stroke="#000000" stroke-width="2" stroke-dasharray="5,2" stroke-opacity="0.200000" d="M160.87,-295.75C165.51,-295.75 170.5,-295.75 175.62,-295.75"/>
<polygon fill="#000000" fill-opacity="0.200000" stroke="#000000" stroke-width="2" stroke-opacity="0.200000" points="175.28,-297.85 181.28,-295.75 175.28,-293.65 175.28,-297.85"/>
</g>
<!-- src/pages/HomePage.vue -->
<g id="node22" class="node">
<title>src/pages/HomePage.vue</title>
<g id="a_node22"><a xlink:href="src/pages/HomePage.vue" xlink:title="HomePage.vue">
<path fill="#41f083" stroke="black" d="M268.58,-212C268.58,-212 201.17,-212 201.17,-212 198.08,-212 195,-208.92 195,-205.83 195,-205.83 195,-199.67 195,-199.67 195,-196.58 198.08,-193.5 201.17,-193.5 201.17,-193.5 268.58,-193.5 268.58,-193.5 271.67,-193.5 274.75,-196.58 274.75,-199.67 274.75,-199.67 274.75,-205.83 274.75,-205.83 274.75,-208.92 271.67,-212 268.58,-212"/>
<text text-anchor="start" x="203" y="-199.45" font-family="Helvetica,sans-Serif" font-size="9.00">HomePage.vue</text>
</a>
</g>
</g>
<!-- src/router/index.ts&#45;&gt;src/pages/HomePage.vue -->
<g id="edge56" class="edge">
<title>src/router/index.ts&#45;&gt;src/pages/HomePage.vue</title>
<path fill="none" stroke="#000000" stroke-width="2" stroke-opacity="0.200000" d="M155.6,-286.03C160.55,-282.8 165.31,-278.72 168.5,-273.75 181.84,-252.96 160.18,-237.29 176.5,-218.75 179.34,-215.52 182.77,-212.92 186.52,-210.83"/>
<polygon fill="#000000" fill-opacity="0.200000" stroke="#000000" stroke-width="2" stroke-opacity="0.200000" points="187.22,-212.82 191.83,-208.45 185.5,-208.99 187.22,-212.82"/>
</g>
<!-- src/pages/NotFoundPage.vue -->
<g id="node23" class="node">
<title>src/pages/NotFoundPage.vue</title>
<g id="a_node23"><a xlink:href="src/pages/NotFoundPage.vue" xlink:title="NotFoundPage.vue">
<path fill="#41f083" stroke="black" d="M276.46,-398C276.46,-398 193.29,-398 193.29,-398 190.21,-398 187.12,-394.92 187.12,-391.83 187.12,-391.83 187.12,-385.67 187.12,-385.67 187.12,-382.58 190.21,-379.5 193.29,-379.5 193.29,-379.5 276.46,-379.5 276.46,-379.5 279.54,-379.5 282.62,-382.58 282.62,-385.67 282.62,-385.67 282.62,-391.83 282.62,-391.83 282.62,-394.92 279.54,-398 276.46,-398"/>
<text text-anchor="start" x="195.12" y="-385.45" font-family="Helvetica,sans-Serif" font-size="9.00">NotFoundPage.vue</text>
</a>
</g>
</g>
<!-- src/router/index.ts&#45;&gt;src/pages/NotFoundPage.vue -->
<g id="edge57" class="edge">
<title>src/router/index.ts&#45;&gt;src/pages/NotFoundPage.vue</title>
<path fill="none" stroke="#000000" stroke-width="2" stroke-dasharray="5,2" stroke-opacity="0.200000" d="M137.07,-305.39C141.94,-321.76 154.09,-354.93 176.5,-372.75 177.39,-373.46 178.3,-374.13 179.25,-374.78"/>
<polygon fill="#000000" fill-opacity="0.200000" stroke="#000000" stroke-width="2" stroke-opacity="0.200000" points="178.02,-376.49 184.27,-377.65 180.11,-372.85 178.02,-376.49"/>
</g>
<!-- src/pages/PostDetailPage.vue -->
<g id="node24" class="node">
<title>src/pages/PostDetailPage.vue</title>
<g id="a_node24"><a xlink:href="src/pages/PostDetailPage.vue" xlink:title="PostDetailPage.vue">
<path fill="#41f083" stroke="black" d="M277.21,-336C277.21,-336 192.54,-336 192.54,-336 189.46,-336 186.38,-332.92 186.38,-329.83 186.38,-329.83 186.38,-323.67 186.38,-323.67 186.38,-320.58 189.46,-317.5 192.54,-317.5 192.54,-317.5 277.21,-317.5 277.21,-317.5 280.29,-317.5 283.38,-320.58 283.38,-323.67 283.38,-323.67 283.38,-329.83 283.38,-329.83 283.38,-332.92 280.29,-336 277.21,-336"/>
<text text-anchor="start" x="194.38" y="-323.45" font-family="Helvetica,sans-Serif" font-size="9.00">PostDetailPage.vue</text>
</a>
</g>
</g>
<!-- src/router/index.ts&#45;&gt;src/pages/PostDetailPage.vue -->
<g id="edge58" class="edge">
<title>src/router/index.ts&#45;&gt;src/pages/PostDetailPage.vue</title>
<path fill="none" stroke="#000000" stroke-width="2" stroke-dasharray="5,2" stroke-opacity="0.200000" d="M160.62,-305.4C165.85,-307.24 171.33,-309.11 176.5,-310.75 180.54,-312.03 184.75,-313.31 188.98,-314.56"/>
<polygon fill="#000000" fill-opacity="0.200000" stroke="#000000" stroke-width="2" stroke-opacity="0.200000" points="188.39,-316.58 194.74,-316.23 189.56,-312.54 188.39,-316.58"/>
</g>
<!-- src/pages/PostEditorPage.vue -->
<g id="node25" class="node">
<title>src/pages/PostEditorPage.vue</title>
<g id="a_node25"><a xlink:href="src/pages/PostEditorPage.vue" xlink:title="PostEditorPage.vue">
<path fill="#41f083" stroke="black" d="M277.21,-243C277.21,-243 192.54,-243 192.54,-243 189.46,-243 186.38,-239.92 186.38,-236.83 186.38,-236.83 186.38,-230.67 186.38,-230.67 186.38,-227.58 189.46,-224.5 192.54,-224.5 192.54,-224.5 277.21,-224.5 277.21,-224.5 280.29,-224.5 283.38,-227.58 283.38,-230.67 283.38,-230.67 283.38,-236.83 283.38,-236.83 283.38,-239.92 280.29,-243 277.21,-243"/>
<text text-anchor="start" x="194.38" y="-230.45" font-family="Helvetica,sans-Serif" font-size="9.00">PostEditorPage.vue</text>
</a>
</g>
</g>
<!-- src/router/index.ts&#45;&gt;src/pages/PostEditorPage.vue -->
<g id="edge59" class="edge">
<title>src/router/index.ts&#45;&gt;src/pages/PostEditorPage.vue</title>
<path fill="none" stroke="#000000" stroke-width="2" stroke-dasharray="5,2" stroke-opacity="0.200000" d="M154.31,-286.08C159.51,-282.77 164.71,-278.64 168.5,-273.75 175.39,-264.86 168.35,-257.5 176.5,-249.75 177.21,-249.07 177.95,-248.42 178.71,-247.8"/>
<polygon fill="#000000" fill-opacity="0.200000" stroke="#000000" stroke-width="2" stroke-opacity="0.200000" points="179.74,-249.64 183.59,-244.57 177.42,-246.14 179.74,-249.64"/>
</g>
<!-- src/pages/PostsPage.vue -->
<g id="node26" class="node">
<title>src/pages/PostsPage.vue</title>
<g id="a_node26"><a xlink:href="src/pages/PostsPage.vue" xlink:title="PostsPage.vue">
<path fill="#41f083" stroke="black" d="M267.46,-274C267.46,-274 202.29,-274 202.29,-274 199.21,-274 196.12,-270.92 196.12,-267.83 196.12,-267.83 196.12,-261.67 196.12,-261.67 196.12,-258.58 199.21,-255.5 202.29,-255.5 202.29,-255.5 267.46,-255.5 267.46,-255.5 270.54,-255.5 273.62,-258.58 273.62,-261.67 273.62,-261.67 273.62,-267.83 273.62,-267.83 273.62,-270.92 270.54,-274 267.46,-274"/>
<text text-anchor="start" x="204.12" y="-261.45" font-family="Helvetica,sans-Serif" font-size="9.00">PostsPage.vue</text>
</a>
</g>
</g>
<!-- src/router/index.ts&#45;&gt;src/pages/PostsPage.vue -->
<g id="edge60" class="edge">
<title>src/router/index.ts&#45;&gt;src/pages/PostsPage.vue</title>
<path fill="none" stroke="#000000" stroke-width="2" stroke-dasharray="5,2" stroke-opacity="0.200000" d="M160.62,-286.1C165.85,-284.25 171.33,-282.39 176.5,-280.75 180.54,-279.47 184.75,-278.19 188.98,-276.94"/>
<polygon fill="#000000" fill-opacity="0.200000" stroke="#000000" stroke-width="2" stroke-opacity="0.200000" points="189.56,-278.96 194.74,-275.27 188.39,-274.92 189.56,-278.96"/>
</g>
<!-- src/pages/ProfileEditPage.vue -->
<g id="node27" class="node">
<title>src/pages/ProfileEditPage.vue</title>
<g id="a_node27"><a xlink:href="src/pages/ProfileEditPage.vue" xlink:title="ProfileEditPage.vue">
<path fill="#41f083" stroke="black" d="M277.21,-150C277.21,-150 192.54,-150 192.54,-150 189.46,-150 186.38,-146.92 186.38,-143.83 186.38,-143.83 186.38,-137.67 186.38,-137.67 186.38,-134.58 189.46,-131.5 192.54,-131.5 192.54,-131.5 277.21,-131.5 277.21,-131.5 280.29,-131.5 283.38,-134.58 283.38,-137.67 283.38,-137.67 283.38,-143.83 283.38,-143.83 283.38,-146.92 280.29,-150 277.21,-150"/>
<text text-anchor="start" x="194.38" y="-137.45" font-family="Helvetica,sans-Serif" font-size="9.00">ProfileEditPage.vue</text>
</a>
</g>
</g>
<!-- src/router/index.ts&#45;&gt;src/pages/ProfileEditPage.vue -->
<g id="edge61" class="edge">
<title>src/router/index.ts&#45;&gt;src/pages/ProfileEditPage.vue</title>
<path fill="none" stroke="#000000" stroke-width="2" stroke-dasharray="5,2" stroke-opacity="0.200000" d="M155.86,-286.19C160.81,-282.96 165.5,-278.84 168.5,-273.75 181.73,-251.3 160.04,-176.96 176.5,-156.75 177.34,-155.72 178.23,-154.76 179.18,-153.85"/>
<polygon fill="#000000" fill-opacity="0.200000" stroke="#000000" stroke-width="2" stroke-opacity="0.200000" points="180.12,-155.77 183.68,-150.5 177.62,-152.4 180.12,-155.77"/>
</g>
<!-- src/pages/ProfilePage.vue -->
<g id="node28" class="node">
<title>src/pages/ProfilePage.vue</title>
<g id="a_node28"><a xlink:href="src/pages/ProfilePage.vue" xlink:title="ProfilePage.vue">
<path fill="#41f083" stroke="black" d="M269.33,-181C269.33,-181 200.42,-181 200.42,-181 197.33,-181 194.25,-177.92 194.25,-174.83 194.25,-174.83 194.25,-168.67 194.25,-168.67 194.25,-165.58 197.33,-162.5 200.42,-162.5 200.42,-162.5 269.33,-162.5 269.33,-162.5 272.42,-162.5 275.5,-165.58 275.5,-168.67 275.5,-168.67 275.5,-174.83 275.5,-174.83 275.5,-177.92 272.42,-181 269.33,-181"/>
<text text-anchor="start" x="202.25" y="-168.45" font-family="Helvetica,sans-Serif" font-size="9.00">ProfilePage.vue</text>
</a>
</g>
</g>
<!-- src/router/index.ts&#45;&gt;src/pages/ProfilePage.vue -->
<g id="edge62" class="edge">
<title>src/router/index.ts&#45;&gt;src/pages/ProfilePage.vue</title>
<path fill="none" stroke="#000000" stroke-width="2" stroke-dasharray="5,2" stroke-opacity="0.200000" d="M155.78,-286.14C160.73,-282.91 165.44,-278.8 168.5,-273.75 178.44,-257.33 164.2,-202.48 176.5,-187.75 179.11,-184.63 182.26,-182.09 185.74,-180.03"/>
<polygon fill="#000000" fill-opacity="0.200000" stroke="#000000" stroke-width="2" stroke-opacity="0.200000" points="186.52,-181.98 191.05,-177.52 184.73,-178.19 186.52,-181.98"/>
</g>
<!-- src/pages/AuthPage.vue&#45;&gt;src/stores/auth.ts -->
<g id="edge28" class="edge">
<title>src/pages/AuthPage.vue&#45;&gt;src/stores/auth.ts</title>
<path fill="none" stroke="#000000" stroke-width="2" stroke-opacity="0.200000" d="M272.16,-360.59C280.3,-363 288.05,-367.05 293.25,-373.75 306.6,-390.96 285.69,-750.51 301.25,-765.75 314.7,-778.93 456.12,-777.6 470.75,-765.75 502.9,-739.71 514.29,-608.4 517.46,-559.3"/>
<polygon fill="#000000" fill-opacity="0.200000" stroke="#000000" stroke-width="2" stroke-opacity="0.200000" points="519.55,-559.53 517.82,-553.41 515.36,-559.27 519.55,-559.53"/>
</g>
<!-- src/pages/DashboardPage.vue&#45;&gt;src/stores/auth.ts -->
<g id="edge34" class="edge">
<title>src/pages/DashboardPage.vue&#45;&gt;src/stores/auth.ts</title>
<path fill="none" stroke="#000000" stroke-width="2" stroke-opacity="0.200000" d="M285.63,-304.71C288.5,-306.65 291.1,-308.97 293.25,-311.75 307.74,-330.47 284.36,-721.17 301.25,-737.75 314.69,-750.94 455.95,-749.39 470.75,-737.75 498.91,-715.6 512.48,-604.07 516.86,-559.35"/>
<polygon fill="#000000" fill-opacity="0.200000" stroke="#000000" stroke-width="2" stroke-opacity="0.200000" points="518.94,-559.6 517.41,-553.43 514.76,-559.2 518.94,-559.6"/>
</g>
<!-- src/pages/DashboardPage.vue&#45;&gt;src/components/DashboardPage/DashboardCommentsList.vue -->
<g id="edge29" class="edge">
<title>src/pages/DashboardPage.vue&#45;&gt;src/components/DashboardPage/DashboardCommentsList.vue</title>
<path fill="none" stroke="#000000" stroke-width="2" stroke-opacity="0.200000" d="M285.53,-295.75C292.78,-295.75 300.38,-295.75 308.02,-295.75"/>
<polygon fill="#000000" fill-opacity="0.200000" stroke="#000000" stroke-width="2" stroke-opacity="0.200000" points="307.95,-297.85 313.95,-295.75 307.95,-293.65 307.95,-297.85"/>
</g>
<!-- src/pages/DashboardPage.vue&#45;&gt;src/components/DashboardPage/DashboardDraftsList.vue -->
<g id="edge30" class="edge">
<title>src/pages/DashboardPage.vue&#45;&gt;src/components/DashboardPage/DashboardDraftsList.vue</title>
<path fill="none" stroke="#000000" stroke-width="2" stroke-opacity="0.200000" d="M285.17,-305.5C288.12,-307.26 290.85,-309.32 293.25,-311.75 302.95,-321.56 291.15,-332.35 301.25,-341.75 306.28,-346.43 312.24,-349.94 318.62,-352.55"/>
<polygon fill="#000000" fill-opacity="0.200000" stroke="#000000" stroke-width="2" stroke-opacity="0.200000" points="317.68,-354.44 324.04,-354.41 319.04,-350.47 317.68,-354.44"/>
</g>
<!-- src/pages/DashboardPage.vue&#45;&gt;src/components/DashboardPage/DashboardLikesList.vue -->
<g id="edge31" class="edge">
<title>src/pages/DashboardPage.vue&#45;&gt;src/components/DashboardPage/DashboardLikesList.vue</title>
<path fill="none" stroke="#000000" stroke-width="2" stroke-opacity="0.200000" d="M285.17,-286C288.12,-284.24 290.85,-282.18 293.25,-279.75 302.95,-269.94 291.15,-259.15 301.25,-249.75 306.62,-244.75 313.06,-241.08 319.94,-238.43"/>
<polygon fill="#000000" fill-opacity="0.200000" stroke="#000000" stroke-width="2" stroke-opacity="0.200000" points="320.25,-240.53 325.31,-236.68 318.96,-236.54 320.25,-240.53"/>
</g>
<!-- src/pages/DashboardPage.vue&#45;&gt;src/components/DashboardPage/DashboardPostsList.vue -->
<g id="edge32" class="edge">
<title>src/pages/DashboardPage.vue&#45;&gt;src/components/DashboardPage/DashboardPostsList.vue</title>
<path fill="none" stroke="#000000" stroke-width="2" stroke-opacity="0.200000" d="M276.98,-305.42C285.01,-307.25 293.39,-309.1 301.25,-310.75 308.7,-312.31 316.53,-313.9 324.29,-315.42"/>
<polygon fill="#000000" fill-opacity="0.200000" stroke="#000000" stroke-width="2" stroke-opacity="0.200000" points="323.41,-317.39 329.7,-316.48 324.21,-313.27 323.41,-317.39"/>
</g>
<!-- src/pages/DashboardPage.vue&#45;&gt;src/components/DashboardPage/DashboardStatistics.vue -->
<g id="edge33" class="edge">
<title>src/pages/DashboardPage.vue&#45;&gt;src/components/DashboardPage/DashboardStatistics.vue</title>
<path fill="none" stroke="#000000" stroke-width="2" stroke-opacity="0.200000" d="M276.98,-286.08C285.01,-284.25 293.39,-282.4 301.25,-280.75 308.7,-279.18 316.53,-277.6 324.29,-276.07"/>
<polygon fill="#000000" fill-opacity="0.200000" stroke="#000000" stroke-width="2" stroke-opacity="0.200000" points="324.21,-278.23 329.7,-275.02 323.41,-274.11 324.21,-278.23"/>
</g>
<!-- src/pages/HomePage.vue&#45;&gt;src/lib/supabase.ts -->
<g id="edge36" class="edge">
<title>src/pages/HomePage.vue&#45;&gt;src/lib/supabase.ts</title>
<path fill="none" stroke="#000000" stroke-width="2" stroke-opacity="0.200000" d="M275.02,-198.53C281.97,-196.07 288.5,-192.35 293.25,-186.75 303.95,-174.13 288.94,-123.8 301.25,-112.75 329.28,-87.59 443.34,-86.91 470.75,-112.75 481.76,-123.13 469.91,-236.46 478.75,-248.75 479.08,-249.2 479.42,-249.64 479.77,-250.07"/>
<polygon fill="#000000" fill-opacity="0.200000" stroke="#000000" stroke-width="2" stroke-opacity="0.200000" points="478.36,-251.63 484.26,-253.98 481.12,-248.46 478.36,-251.63"/>
</g>
<!-- src/pages/HomePage.vue&#45;&gt;src/components/common/PostCard.vue -->
<g id="edge35" class="edge">
<title>src/pages/HomePage.vue&#45;&gt;src/components/common/PostCard.vue</title>
<path fill="none" stroke="#000000" stroke-width="2" stroke-opacity="0.200000" d="M275.06,-194.87C295.37,-190.78 320.24,-185.78 341.19,-181.56"/>
<polygon fill="#000000" fill-opacity="0.200000" stroke="#000000" stroke-width="2" stroke-opacity="0.200000" points="341.46,-183.65 346.93,-180.41 340.63,-179.53 341.46,-183.65"/>
</g>
<!-- src/pages/PostDetailPage.vue&#45;&gt;src/stores/auth.ts -->
<g id="edge41" class="edge">
<title>src/pages/PostDetailPage.vue&#45;&gt;src/stores/auth.ts</title>
<path fill="none" stroke="#000000" stroke-width="2" stroke-opacity="0.200000" d="M283.81,-334.56C287.42,-336.71 290.65,-339.4 293.25,-342.75 307.17,-360.71 285.02,-735.84 301.25,-751.75 314.7,-764.94 456.04,-763.51 470.75,-751.75 500.95,-727.62 513.46,-605.86 517.2,-559.09"/>
<polygon fill="#000000" fill-opacity="0.200000" stroke="#000000" stroke-width="2" stroke-opacity="0.200000" points="519.28,-559.47 517.64,-553.32 515.09,-559.15 519.28,-559.47"/>
</g>
<!-- src/pages/PostDetailPage.vue&#45;&gt;src/lib/storage.ts -->
<g id="edge39" class="edge">
<title>src/pages/PostDetailPage.vue&#45;&gt;src/lib/storage.ts</title>
<path fill="none" stroke="#000000" stroke-width="2" stroke-opacity="0.200000" d="M283.72,-318.87C287.35,-316.73 290.61,-314.07 293.25,-310.75 305.71,-295.08 286.78,-144.59 301.25,-130.75 355.69,-78.68 407.26,-90.2 470.75,-130.75 500.08,-149.48 511.67,-191.37 516.03,-215.56"/>
<polygon fill="#000000" fill-opacity="0.200000" stroke="#000000" stroke-width="2" stroke-opacity="0.200000" points="513.91,-215.59 516.93,-221.18 518.06,-214.92 513.91,-215.59"/>
</g>
<!-- src/pages/PostDetailPage.vue&#45;&gt;src/lib/supabase.ts -->
<g id="edge40" class="edge">
<title>src/pages/PostDetailPage.vue&#45;&gt;src/lib/supabase.ts</title>
<path fill="none" stroke="#000000" stroke-width="2" stroke-opacity="0.200000" d="M283.7,-318.86C287.33,-316.72 290.6,-314.06 293.25,-310.75 304.23,-297.02 288.51,-164.86 301.25,-152.75 328.55,-126.8 443.03,-127.25 470.75,-152.75 486.5,-167.24 466.04,-231.52 478.75,-248.75 479.08,-249.2 479.43,-249.63 479.79,-250.06"/>
<polygon fill="#000000" fill-opacity="0.200000" stroke="#000000" stroke-width="2" stroke-opacity="0.200000" points="478.4,-251.63 484.32,-253.95 481.13,-248.45 478.4,-251.63"/>
</g>
<!-- src/pages/PostDetailPage.vue&#45;&gt;src/components/PostDetailPage/CommentSystem.vue -->
<g id="edge37" class="edge">
<title>src/pages/PostDetailPage.vue&#45;&gt;src/components/PostDetailPage/CommentSystem.vue</title>
<path fill="none" stroke="#000000" stroke-width="2" stroke-opacity="0.200000" d="M283.64,-335.08C287.23,-337.12 290.51,-339.65 293.25,-342.75 309.3,-360.94 285.06,-378.68 301.25,-396.75 307.78,-404.04 316.4,-409.04 325.63,-412.45"/>
<polygon fill="#000000" fill-opacity="0.200000" stroke="#000000" stroke-width="2" stroke-opacity="0.200000" points="324.99,-414.45 331.34,-414.25 326.25,-410.44 324.99,-414.45"/>
</g>
<!-- src/pages/PostDetailPage.vue&#45;&gt;src/components/PostDetailPage/RichTextContent.vue -->
<g id="edge38" class="edge">
<title>src/pages/PostDetailPage.vue&#45;&gt;src/components/PostDetailPage/RichTextContent.vue</title>
<path fill="none" stroke="#000000" stroke-width="2" stroke-opacity="0.200000" d="M283.84,-334.9C287.39,-336.99 290.61,-339.57 293.25,-342.75 306.22,-358.36 287.64,-418.69 301.25,-433.75 308.01,-441.22 317.09,-445.86 326.78,-448.63"/>
<polygon fill="#000000" fill-opacity="0.200000" stroke="#000000" stroke-width="2" stroke-opacity="0.200000" points="326.15,-450.64 332.47,-449.93 327.09,-446.54 326.15,-450.64"/>
</g>
<!-- src/pages/PostEditorPage.vue&#45;&gt;src/stores/auth.ts -->
<g id="edge45" class="edge">
<title>src/pages/PostEditorPage.vue&#45;&gt;src/stores/auth.ts</title>
<path fill="none" stroke="#000000" stroke-width="2" stroke-opacity="0.200000" d="M283.82,-241.55C287.42,-243.7 290.66,-246.39 293.25,-249.75 309.35,-270.59 282.47,-705.28 301.25,-723.75 314.68,-736.95 455.85,-735.26 470.75,-723.75 496.97,-703.49 511.53,-601.44 516.51,-559.15"/>
<polygon fill="#000000" fill-opacity="0.200000" stroke="#000000" stroke-width="2" stroke-opacity="0.200000" points="518.6,-559.41 517.19,-553.21 514.42,-558.94 518.6,-559.41"/>
</g>
<!-- src/pages/PostEditorPage.vue&#45;&gt;src/lib/storage.ts -->
<g id="edge43" class="edge">
<title>src/pages/PostEditorPage.vue&#45;&gt;src/lib/storage.ts</title>
<path fill="none" stroke="#000000" stroke-width="2" stroke-opacity="0.200000" d="M283.63,-225.79C287.27,-223.67 290.57,-221.03 293.25,-217.75 308.9,-198.6 283.15,-123.6 301.25,-106.75 356.4,-55.43 408.81,-63.87 470.75,-106.75 506.59,-131.57 515.57,-186.88 517.79,-215.62"/>
<polygon fill="#000000" fill-opacity="0.200000" stroke="#000000" stroke-width="2" stroke-opacity="0.200000" points="515.67,-215.39 518.13,-221.25 519.86,-215.13 515.67,-215.39"/>
</g>
<!-- src/pages/PostEditorPage.vue&#45;&gt;src/lib/supabase.ts -->
<g id="edge44" class="edge">
<title>src/pages/PostEditorPage.vue&#45;&gt;src/lib/supabase.ts</title>
<path fill="none" stroke="#000000" stroke-width="2" stroke-opacity="0.200000" d="M283.81,-225.57C287.37,-223.49 290.59,-220.92 293.25,-217.75 305.15,-203.55 287.53,-147.21 301.25,-134.75 329.13,-109.43 443.2,-109.06 470.75,-134.75 489.33,-152.07 463.81,-228.22 478.75,-248.75 479.08,-249.2 479.42,-249.64 479.78,-250.07"/>
<polygon fill="#000000" fill-opacity="0.200000" stroke="#000000" stroke-width="2" stroke-opacity="0.200000" points="478.38,-251.63 484.29,-253.96 481.12,-248.45 478.38,-251.63"/>
</g>
<!-- src/pages/PostEditorPage.vue&#45;&gt;src/components/PostEditorPage/RichTextEditor.vue -->
<g id="edge42" class="edge">
<title>src/pages/PostEditorPage.vue&#45;&gt;src/components/PostEditorPage/RichTextEditor.vue</title>
<path fill="none" stroke="#000000" stroke-width="2" stroke-opacity="0.200000" d="M283.76,-241.6C287.38,-243.74 290.63,-246.42 293.25,-249.75 309.67,-270.64 284.67,-467.98 301.25,-488.75 308.8,-498.2 319.87,-503.89 331.52,-507.24"/>
<polygon fill="#000000" fill-opacity="0.200000" stroke="#000000" stroke-width="2" stroke-opacity="0.200000" points="330.78,-509.22 337.11,-508.58 331.76,-505.14 330.78,-509.22"/>
</g>
<!-- src/pages/PostsPage.vue&#45;&gt;src/components/common/PostCard.vue -->
<g id="edge46" class="edge">
<title>src/pages/PostsPage.vue&#45;&gt;src/components/common/PostCard.vue</title>
<path fill="none" stroke="#000000" stroke-width="2" stroke-opacity="0.200000" d="M273.93,-260.28C281.14,-257.86 288.04,-254.21 293.25,-248.75 304.26,-237.2 291.34,-226.26 301.25,-213.75 311.52,-200.8 326.91,-191.65 341.72,-185.34"/>
<polygon fill="#000000" fill-opacity="0.200000" stroke="#000000" stroke-width="2" stroke-opacity="0.200000" points="342.23,-187.4 347.03,-183.24 340.68,-183.5 342.23,-187.4"/>
</g>
<!-- src/pages/ProfileEditPage.vue&#45;&gt;src/stores/auth.ts -->
<g id="edge49" class="edge">
<title>src/pages/ProfileEditPage.vue&#45;&gt;src/stores/auth.ts</title>
<path fill="none" stroke="#000000" stroke-width="2" stroke-opacity="0.200000" d="M283.83,-148.55C287.43,-150.7 290.66,-153.39 293.25,-156.75 310.76,-179.45 280.82,-652.63 301.25,-672.75 354.93,-725.6 409.08,-716.02 470.75,-672.75 507.85,-646.72 516.25,-588.84 518.06,-559.13"/>
<polygon fill="#000000" fill-opacity="0.200000" stroke="#000000" stroke-width="2" stroke-opacity="0.200000" points="520.16,-559.33 518.33,-553.25 515.96,-559.15 520.16,-559.33"/>
</g>
<!-- src/pages/ProfileEditPage.vue&#45;&gt;src/lib/storage.ts -->
<g id="edge47" class="edge">
<title>src/pages/ProfileEditPage.vue&#45;&gt;src/lib/storage.ts</title>
<path fill="none" stroke="#000000" stroke-width="2" stroke-opacity="0.200000" d="M238.2,-131.18C244.18,-108.88 262.46,-53.71 301.25,-31.75 366.8,5.37 411.67,14.99 470.75,-31.75 499.65,-54.61 512.85,-169.84 516.99,-215.29"/>
<polygon fill="#000000" fill-opacity="0.200000" stroke="#000000" stroke-width="2" stroke-opacity="0.200000" points="514.88,-215.29 517.49,-221.08 519.06,-214.92 514.88,-215.29"/>
</g>
<!-- src/pages/ProfileEditPage.vue&#45;&gt;src/lib/supabase.ts -->
<g id="edge48" class="edge">
<title>src/pages/ProfileEditPage.vue&#45;&gt;src/lib/supabase.ts</title>
<path fill="none" stroke="#000000" stroke-width="2" stroke-opacity="0.200000" d="M242.1,-131.18C252.35,-116.4 274.35,-88.6 301.25,-77.75 371.11,-49.57 416.25,-25.74 470.75,-77.75 484.51,-90.88 467.74,-233.24 478.75,-248.75 479.07,-249.2 479.41,-249.65 479.76,-250.08"/>
<polygon fill="#000000" fill-opacity="0.200000" stroke="#000000" stroke-width="2" stroke-opacity="0.200000" points="478.34,-251.62 484.24,-254 481.11,-248.46 478.34,-251.62"/>
</g>
<!-- src/pages/ProfilePage.vue&#45;&gt;src/stores/auth.ts -->
<g id="edge53" class="edge">
<title>src/pages/ProfilePage.vue&#45;&gt;src/stores/auth.ts</title>
<path fill="none" stroke="#000000" stroke-width="2" stroke-opacity="0.200000" d="M275.72,-175.74C282.54,-178.22 288.83,-182.02 293.25,-187.75 310.97,-210.71 280.58,-689.4 301.25,-709.75 314.67,-722.96 455.73,-721.11 470.75,-709.75 495.01,-691.4 510.46,-598.97 516.1,-559.1"/>
<polygon fill="#000000" fill-opacity="0.200000" stroke="#000000" stroke-width="2" stroke-opacity="0.200000" points="518.15,-559.61 516.88,-553.38 513.99,-559.04 518.15,-559.61"/>
</g>
<!-- src/pages/ProfilePage.vue&#45;&gt;src/lib/storage.ts -->
<g id="edge51" class="edge">
<title>src/pages/ProfilePage.vue&#45;&gt;src/lib/storage.ts</title>
<path fill="none" stroke="#000000" stroke-width="2" stroke-opacity="0.200000" d="M275.97,-167.27C282.59,-164.81 288.75,-161.15 293.25,-155.75 305.69,-140.84 286.91,-81.83 301.25,-68.75 356.9,-17.98 410.53,-23.49 470.75,-68.75 494.48,-86.59 510.19,-176.5 515.99,-215.58"/>
<polygon fill="#000000" fill-opacity="0.200000" stroke="#000000" stroke-width="2" stroke-opacity="0.200000" points="513.89,-215.71 516.82,-221.34 518.04,-215.11 513.89,-215.71"/>
</g>
<!-- src/pages/ProfilePage.vue&#45;&gt;src/lib/supabase.ts -->
<g id="edge52" class="edge">
<title>src/pages/ProfilePage.vue&#45;&gt;src/lib/supabase.ts</title>
<path fill="none" stroke="#000000" stroke-width="2" stroke-opacity="0.200000" d="M275.83,-167.16C282.46,-164.71 288.66,-161.08 293.25,-155.75 312.24,-133.69 279.45,-110.03 301.25,-90.75 315.36,-78.27 457.1,-77.77 470.75,-90.75 483.49,-102.86 468.55,-234.44 478.75,-248.75 479.07,-249.2 479.41,-249.65 479.77,-250.07"/>
<polygon fill="#000000" fill-opacity="0.200000" stroke="#000000" stroke-width="2" stroke-opacity="0.200000" points="478.35,-251.62 484.25,-253.99 481.11,-248.46 478.35,-251.62"/>
</g>
<!-- src/pages/ProfilePage.vue&#45;&gt;src/components/common/PostCard.vue -->
<g id="edge50" class="edge">
<title>src/pages/ProfilePage.vue&#45;&gt;src/components/common/PostCard.vue</title>
<path fill="none" stroke="#000000" stroke-width="2" stroke-opacity="0.200000" d="M275.84,-172.02C295.98,-172.15 320.45,-172.32 341.11,-172.46"/>
<polygon fill="#000000" fill-opacity="0.200000" stroke="#000000" stroke-width="2" stroke-opacity="0.200000" points="340.97,-174.55 346.98,-172.49 340.99,-170.35 340.97,-174.55"/>
</g>
<!-- src/shims&#45;vue.d.ts -->
<g id="node29" class="node">
<title>src/shims&#45;vue.d.ts</title>
<g id="a_node29"><a xlink:href="src/shims-vue.d.ts" xlink:title="shims&#45;vue.d.ts">
<path fill="#ccffcc" stroke="black" d="M84.33,-540C84.33,-540 22.17,-540 22.17,-540 19.08,-540 16,-536.92 16,-533.83 16,-533.83 16,-527.67 16,-527.67 16,-524.58 19.08,-521.5 22.17,-521.5 22.17,-521.5 84.33,-521.5 84.33,-521.5 87.42,-521.5 90.5,-524.58 90.5,-527.67 90.5,-527.67 90.5,-533.83 90.5,-533.83 90.5,-536.92 87.42,-540 84.33,-540"/>
<text text-anchor="start" x="24" y="-527.45" font-family="Helvetica,sans-Serif" font-size="9.00">shims&#45;vue.d.ts</text>
</a>
</g>
</g>
</g>
</svg>
